<svg xmlns="http://www.w3.org/2000/svg" viewBox="0 0 32 32"><defs><style>.cls-1{fill:#44d62c;}</style></defs><title>icon</title><g id="Layer_2" data-name="Layer 2"><path class="cls-1" d="M23.5,19a.62.62,0,0,1-.41-.16L19.17,15a.55.55,0,0,1,0-.8.6.6,0,0,1,.81,0l3.52,3.46L27,14.16a.6.6,0,0,1,.81,0,.55.55,0,0,1,0,.8l-3.92,3.86A.62.62,0,0,1,23.5,19Z"/><path class="cls-1" d="M16,3.1A12.9,12.9,0,1,1,3.1,16,12.92,12.92,0,0,1,16,3.1M16,2A14,14,0,1,0,30,16,14,14,0,0,0,16,2Z"/><path class="cls-1" d="M23,4.5v14a.5.5,0,0,0,1,0V5S23,4.36,23,4.5Z"/><path class="cls-1" d="M15.5,26a.62.62,0,0,1-.41-.16L11.17,22a.55.55,0,0,1,0-.8.6.6,0,0,1,.81,0l3.52,3.46L19,21.16a.6.6,0,0,1,.81,0,.55.55,0,0,1,0,.8l-3.92,3.86A.62.62,0,0,1,15.5,26Z"/><path class="cls-1" d="M15,25.5a.5.5,0,0,0,1,0V3H15Z"/><path class="cls-1" d="M9.5,16a.62.62,0,0,1-.41-.16L5.17,12a.55.55,0,0,1,0-.8.6.6,0,0,1,.81,0L9.5,14.62,13,11.16a.6.6,0,0,1,.81,0,.55.55,0,0,1,0,.8L9.91,15.82A.62.62,0,0,1,9.5,16Z"/><path class="cls-1" d="M9,5V15.5a.5.5,0,0,0,1,0V4.5Z"/></g></svg>