<svg xmlns="http://www.w3.org/2000/svg" viewBox="0 0 32 32"><defs><style>.cls-1{fill:#44d62c;}</style></defs><title>icon</title><g id="Layer_2" data-name="Layer 2"><path class="cls-1" d="M14.52,16.28a.47.47,0,0,1-.17,0,3.94,3.94,0,0,1-2.68-3.73A4,4,0,1,1,17,16.24a.51.51,0,0,1-.48-.06.53.53,0,0,1-.22-.43V12.51a.72.72,0,0,0-.48-.62.6.6,0,0,0-.64.25.76.76,0,0,0-.13.46v3.16a.55.55,0,0,1-.22.43A.56.56,0,0,1,14.52,16.28ZM15.66,9.6A2.91,2.91,0,0,0,14,14.91V12.6a1.72,1.72,0,0,1,.34-1.08,1.64,1.64,0,0,1,1.81-.63,1.77,1.77,0,0,1,1.21,1.61v2.38h0A2.91,2.91,0,0,0,15.66,9.6Z"/><path class="cls-1" d="M16,30A13.91,13.91,0,1,1,30,16.09,14,14,0,0,1,16,30ZM16,3.24A12.86,12.86,0,1,0,29,16.09,12.89,12.89,0,0,0,16,3.24Z"/><path class="cls-1" d="M17.17,25.83H15.64a3.34,3.34,0,0,1-3.27-3.35V19.31A1.81,1.81,0,0,1,13,17.83a1.69,1.69,0,0,1,1-.34V12.6a1.72,1.72,0,0,1,.34-1.08,1.64,1.64,0,0,1,1.81-.63,1.77,1.77,0,0,1,1.21,1.61v2.69a1.68,1.68,0,0,1,1.33.82,1.51,1.51,0,0,1,1.58.8,2,2,0,0,1,.48,0,1.73,1.73,0,0,1,1.37,1.69v4a3.34,3.34,0,0,1-3.28,3.32Zm-3.1-7.29a.61.61,0,0,0-.39.12.76.76,0,0,0-.25.65v3.16a2.29,2.29,0,0,0,2.23,2.3c1,0,2.11,0,3.17,0a2.28,2.28,0,0,0,2.23-2.28c0-1.13,0-2.26,0-3.4v-.57a.66.66,0,0,0-.51-.66,1.12,1.12,0,0,0-.31,0H20a.49.49,0,0,1-.49-.29c-.27-.54-.32-.6-1-.5a.55.55,0,0,1-.55-.31c-.26-.56-.54-.61-.93-.5a.51.51,0,0,1-.46-.09.5.5,0,0,1-.21-.42V12.51a.72.72,0,0,0-.48-.62.6.6,0,0,0-.64.25.76.76,0,0,0-.13.46v5.48a.51.51,0,0,1-.21.41.54.54,0,0,1-.46.1A1.18,1.18,0,0,0,14.07,18.54Z"/></g></svg>