<svg id="Layer_2" data-name="Layer 2" xmlns="http://www.w3.org/2000/svg" viewBox="0 0 32 32"><defs><style>.cls-1{fill:#fff;}</style></defs><path class="cls-1" d="M16,30A14,14,0,1,1,30,16,14,14,0,0,1,16,30ZM16,3.05A13,13,0,1,0,29,16,13,13,0,0,0,16,3.05Z"/><path class="cls-1" d="M23,19.12H9a.5.5,0,0,1-.5-.49h0V10.07a1,1,0,0,1,1-1H22.56a1,1,0,0,1,1,1v8.56a.49.49,0,0,1-.49.49Zm-13.57-1H22.54v-8H9.44Z"/><path class="cls-1" d="M23.71,22.89H8.28a1,1,0,0,1-1-1v-1.1a.49.49,0,0,1,.49-.49H24.22a.49.49,0,0,1,.49.49h0v1.1a1,1,0,0,1-1,1ZM8.26,21.32v.61l15.45,0v-.59Z"/><path class="cls-1" d="M7.77,21.32a.46.46,0,0,1-.23-.06.49.49,0,0,1-.2-.66h0l1.28-2.32a.49.49,0,0,1,.67-.17.48.48,0,0,1,.19.64L8.2,21.07A.5.5,0,0,1,7.77,21.32Z"/><path class="cls-1" d="M24.23,21.32a.49.49,0,0,1-.43-.25l-1.28-2.33a.48.48,0,0,1,.19-.67.49.49,0,0,1,.67.2l1.28,2.32a.5.5,0,0,1-.19.67h0A.53.53,0,0,1,24.23,21.32Z"/></svg>