<svg xmlns="http://www.w3.org/2000/svg" viewBox="0 0 32 32"><defs><style>.cls-1{fill:#fff;}</style></defs><title>icon</title><g id="Layer_2" data-name="Layer 2"><path class="cls-1" d="M18.19,8,16.58,9.57a.53.53,0,0,0,0,.75.53.53,0,0,0,.37.15.55.55,0,0,0,.38-.15l2-2a.54.54,0,0,0,0-.75l-2-2a.53.53,0,0,0-.75,0,.51.51,0,0,0,0,.74Z"/><path class="cls-1" d="M14,10.32a.53.53,0,0,0,.37.15.55.55,0,0,0,.38-.15l2-2a.54.54,0,0,0,0-.75l-2-2a.53.53,0,0,0-.75,0,.51.51,0,0,0,0,.74L15.61,8,14,9.57A.53.53,0,0,0,14,10.32Z"/><path class="cls-1" d="M16,2A14,14,0,1,0,30,16,14,14,0,0,0,16,2Zm0,26.94A12.94,12.94,0,1,1,28.94,16,12.95,12.95,0,0,1,16,28.94Z"/><rect class="cls-1" x="11.88" y="15.62" width="2.5" height="3.49" rx="0.24"/><rect class="cls-1" x="15.85" y="15.62" width="2.5" height="3.49" rx="0.24"/><rect class="cls-1" x="19.82" y="15.62" width="2.5" height="3.49" rx="0.24"/><path class="cls-1" d="M24.3,12.66H7.71a.53.53,0,0,0-.53.53v3a.52.52,0,0,0,.53.52.71.71,0,0,1,.7.71.7.7,0,0,1-.7.7.53.53,0,0,0-.53.53v2.95a.53.53,0,0,0,.53.53H24.3a.52.52,0,0,0,.52-.53V13.19A.52.52,0,0,0,24.3,12.66ZM23.77,21H8.23v-2a1.77,1.77,0,0,0,1.24-1.68,1.76,1.76,0,0,0-1.24-1.68v-2H23.77Z"/></g></svg>