<svg id="Logo" xmlns="http://www.w3.org/2000/svg" viewBox="0 0 778.15 331.09"><defs><style>.cls-1{fill:#fff;}</style></defs><title>nvidia-gf-rtx-logo-rgb-1c-wht-for-screen</title><g id="NVIDIA_GeForce_RTX" data-name="NVIDIA GeForce RTX"><g id="_Group_" data-name="&lt;Group&gt;"><path class="cls-1" d="M201.34,207.52h-4v18.55h4c5.75,0,9.47-2.58,9.47-9.28S207.09,207.52,201.34,207.52Z"/><path class="cls-1" d="M233.53,153.21c-2.11-2.14-12.39-7-14.9-9-15.14,13.07-30.78,24.11-52.41,24.11a40.11,40.11,0,0,1-5-.32v6.74c1.73.17,3.49.28,5.33.28C185.58,175,219.13,165.27,233.53,153.21Z"/><path class="cls-1" d="M163.54,116.05c21.44-.67,35.5,18.42,35.5,18.42s-15.19,21.09-31.47,21.09a19.88,19.88,0,0,1-6.34-1v6.17a33.49,33.49,0,0,0,6,.53c23.23,0,45.54-27.12,45.54-27.12s-19.42-25.45-49.23-24.44c-.77,0-1.54.07-2.31.13v6.35Q162.37,116.08,163.54,116.05Z"/><path class="cls-1" d="M135.68,136.37A43.21,43.21,0,0,1,161.23,124v-7.84a49.53,49.53,0,0,0-35.52,19.3s9.06,29.16,35.52,32.49v-7.24C141.23,157.16,135.68,136.37,135.68,136.37Z"/><path class="cls-1" d="M161.2,130.78c-8.37-1-14.91,6.81-14.91,6.81s3.67,13.17,14.94,17V130.78Z"/><path class="cls-1" d="M176.27,143.84l11.16-9.41s-8.15-10.68-21.88-10.68a40.27,40.27,0,0,0-4.32.26v6.77C169.58,131.79,171.25,135.48,176.27,143.84Z"/><path class="cls-1" d="M57.54,57.55v216H662.46l57.87-216Zm103.69,52.27V98.12h82.19v86.75H161.23V174.7c-36.06-3.4-48.92-40.57-48.92-40.57S135,111.93,161.23,109.82ZM133.72,233h-9V218.69c0-4.58-.6-7.08-2-8.64-1.15-1.22-2.85-1.82-5.24-1.82h-7.2V233h-9.29V200.37h16.54c8,0,16.25,1.74,16.25,14.62Zm25.21,0H145.65l-10.52-32.61h9.94l7.37,25.85,7.69-25.85h9.4Zm23.7,0h-9.22V200.41h9.22Zm33.93-4.29c-2.81,3-5.41,4.29-13.37,4.29H188.24V200.42h12.93c7.34,0,12.26.89,15.67,5.44,1.9,2.55,3,6.64,3,11.22C219.83,222.08,218.54,226.66,216.56,228.74ZM233.33,233h-9.22V200.42h9.22Zm32,0-1.92-5.76H248.19l-2,5.76h-9.09l12.87-32.59h12.31l13,32.6Zm16.27,2.69a4.56,4.56,0,1,1,4.56-4.56A4.56,4.56,0,0,1,281.61,235.71Zm372.92,27H309.89L362,68.36H706.61Z"/><path class="cls-1" d="M281.61,227.47a3.68,3.68,0,1,0,3.62,3.68A3.58,3.58,0,0,0,281.61,227.47Zm.82,6.1-.88-1.88H281v1.88H280v-4.85h2a1.54,1.54,0,0,1,1.61,1.53,1.37,1.37,0,0,1-.9,1.28l1,2Z"/><polygon class="cls-1" points="250.16 221.64 261.5 221.64 255.92 206.37 250.16 221.64"/><path class="cls-1" d="M281.79,229.62H281v1.25h.76a.62.62,0,0,0,.66-.62A.63.63,0,0,0,281.79,229.62Z"/><path class="cls-1" d="M467.68,233H449.83l-21-34.69H413.24V233H396.76v-85.1h51.06a14.21,14.21,0,0,1,14.23,14.22v22a14.22,14.22,0,0,1-14.23,14.23h-1Zm-54.44-49.79H441A4.2,4.2,0,0,0,445.2,179V167.39A4.32,4.32,0,0,0,441,163H413.24Z"/><path class="cls-1" d="M536.76,147.93v14.84H512.42V233h-16.6V162.77H471.47V147.93Z"/><path class="cls-1" d="M600.17,147.93H618.5L591.7,188.3,620,233h-20L581.6,204l-18.7,29H544.7l28.17-42.86-26.55-42.24h19.95l16.83,26.79Z"/><path class="cls-1" d="M629.77,147.93v.91h-2.56v7h-1v-7h-2.44v-.91Zm7.55,0h1v7.9h-1v-6.15l-2.31,3.93h-.86L632,149.86v6h-1v-7.9h1l2.66,4.59Z"/><path class="cls-1" d="M396.76,104.08a6,6,0,0,1,6-6h22.59v6.43H405.6a1.84,1.84,0,0,0-1.83,1.78v16.73a1.82,1.82,0,0,0,.52,1.25l2.51,2.51a1.73,1.73,0,0,0,1.31.52h9.57a1.75,1.75,0,0,0,1.77-1.77v-6.44H411V112.7h15.47v15.17a5.94,5.94,0,0,1-6,5.9H404.66a1.81,1.81,0,0,1-1.31-.52l-6.06-6.06a1.83,1.83,0,0,1-.53-1.26Z"/><path class="cls-1" d="M439.59,104.44v8.37h14.48v6.32H439.59v8.32h18v6.32h-25V98.12h25v6.32Z"/><path class="cls-1" d="M469.77,133.77h-6.95V98.12h25v6.32h-18v8.37h14.48v6.32H469.77Z"/><path class="cls-1" d="M492.74,104.08a6,6,0,0,1,5.91-6h17.88a6,6,0,0,1,5.91,6v23.79a5.9,5.9,0,0,1-5.91,5.9H498.65a5.9,5.9,0,0,1-5.91-5.9Zm21,23.37a1.76,1.76,0,0,0,1.78-1.78v-19.4a1.81,1.81,0,0,0-1.78-1.83H501.42a1.81,1.81,0,0,0-1.77,1.83v19.4a1.76,1.76,0,0,0,1.77,1.78Z"/><path class="cls-1" d="M558,133.77h-7.47l-8.79-14.53h-6.53v14.53h-6.91V98.12h21.39a6,6,0,0,1,6,6v9.2a6,6,0,0,1-6,6h-.42Zm-22.79-20.86h11.6a1.76,1.76,0,0,0,1.78-1.77v-4.87a1.81,1.81,0,0,0-1.78-1.83h-11.6Z"/><path class="cls-1" d="M585.53,104.44H570.42a1.8,1.8,0,0,0-1.78,1.78v19.45a1.77,1.77,0,0,0,1.78,1.78h15.11v6.32H567.7a5.94,5.94,0,0,1-6-5.9V104.08a6,6,0,0,1,6-6h17.83Z"/><path class="cls-1" d="M598.19,104.44v8.37h14.48v6.32H598.19v8.32h18v6.32h-25V98.12h25v6.32Z"/></g></g></svg>